<svg width="27" height="27" viewBox="0 0 27 27" fill="none" xmlns="http://www.w3.org/2000/svg">
<g id="Frame 35554">
<path id="Vector" d="M25.5 13.5C25.5 15.0759 25.1896 16.6363 24.5866 18.0922C23.9835 19.5481 23.0996 20.871 21.9853 21.9853C20.871 23.0996 19.5481 23.9835 18.0922 24.5866C16.6363 25.1896 15.0759 25.5 13.5 25.5C11.9241 25.5 10.3637 25.1896 8.9078 24.5866C7.45189 23.9835 6.12902 23.0996 5.01472 21.9853C3.90042 20.871 3.0165 19.5481 2.41345 18.0922C1.81039 16.6363 1.5 15.0759 1.5 13.5C1.5 10.3174 2.76428 7.26516 5.01472 5.01472C7.26516 2.76428 10.3174 1.5 13.5 1.5C16.6826 1.5 19.7348 2.76428 21.9853 5.01472C24.2357 7.26516 25.5 10.3174 25.5 13.5Z" stroke="#E45555" stroke-opacity="0.5" stroke-width="3" stroke-linecap="round" stroke-linejoin="round"/>
<path id="Vector_2" d="M13.5 9V13.9941M13.5 17.9893H13.5107V18H13.5V17.9893Z" stroke="#E45555" stroke-width="3" stroke-linecap="round" stroke-linejoin="round"/>
</g>
</svg>
