<svg width="50" height="50" viewBox="0 0 50 50" fill="none" xmlns="http://www.w3.org/2000/svg">
<g clip-path="url(#clip0_22_107)">
<path d="M25 50C38.8071 50 50 38.8071 50 25C50 11.1929 38.8071 0 25 0C11.1929 0 0 11.1929 0 25C0 38.8071 11.1929 50 25 50Z" fill="url(#paint0_linear_22_107)"/>
<path d="M30.5118 12.963L13.8887 37.0351H18.9923L35.7017 12.963H30.5118Z" fill="white"/>
<path d="M19.5245 12.963L24.4155 20.0562L21.8636 23.9253L14.3145 12.963H19.5245Z" fill="url(#paint1_linear_22_107)"/>
<path d="M31.0076 37.0371L25.585 29.1915L28.4122 25.4299L36.1113 37.0371H31.0076Z" fill="#6966FF"/>
</g>
<defs>
<linearGradient id="paint0_linear_22_107" x1="20.8333" y1="6.94444" x2="27.7778" y2="52.7778" gradientUnits="userSpaceOnUse">
<stop stop-color="#3E3E58"/>
<stop offset="1" stop-color="#232331"/>
</linearGradient>
<linearGradient id="paint1_linear_22_107" x1="18.3549" y1="14.4676" x2="25.4458" y2="22.9366" gradientUnits="userSpaceOnUse">
<stop stop-color="white"/>
<stop offset="1" stop-color="white" stop-opacity="0.55"/>
</linearGradient>
<clipPath id="clip0_22_107">
<rect width="50" height="50" fill="white"/>
</clipPath>
</defs>
</svg>
