<svg width="18" height="18" viewBox="0 0 18 18" fill="none" xmlns="http://www.w3.org/2000/svg">
<path fill-rule="evenodd" clip-rule="evenodd" d="M8.25426 4.14008C7.1632 4.14008 6.11682 4.5735 5.34532 5.345C4.57382 6.1165 4.1404 7.16288 4.1404 8.25394C4.1404 9.34501 4.57382 10.3914 5.34532 11.1629C6.11682 11.9344 7.1632 12.3678 8.25426 12.3678C9.34533 12.3678 10.3917 11.9344 11.1632 11.1629C11.9347 10.3914 12.3681 9.34501 12.3681 8.25394C12.3681 7.16288 11.9347 6.1165 11.1632 5.345C10.3917 4.5735 9.34533 4.14008 8.25426 4.14008ZM3.01843 8.25394C3.0185 7.41671 3.21935 6.5917 3.60412 5.84813C3.98889 5.10455 4.54637 4.46408 5.22979 3.98046C5.91321 3.49683 6.70264 3.18414 7.53187 3.06863C8.36109 2.95312 9.20592 3.03814 9.9955 3.31657C10.7851 3.595 11.4964 4.05872 12.0697 4.66883C12.6431 5.27894 13.0617 6.01765 13.2906 6.82298C13.5195 7.62832 13.5519 8.4768 13.3852 9.29726C13.2184 10.1177 12.8573 10.8862 12.3322 11.5383L14.8215 14.0283C14.8766 14.0797 14.9208 14.1416 14.9515 14.2104C14.9821 14.2792 14.9986 14.3535 14.9999 14.4288C15.0013 14.5042 14.9874 14.579 14.9592 14.6488C14.931 14.7187 14.889 14.7821 14.8357 14.8354C14.7825 14.8887 14.719 14.9307 14.6492 14.9589C14.5793 14.9871 14.5045 15.001 14.4292 14.9996C14.3538 14.9983 14.2795 14.9818 14.2107 14.9512C14.1419 14.9205 14.08 14.8763 14.0286 14.8212L11.5386 12.3319C10.7694 12.9515 9.84052 13.3409 8.85938 13.455C7.87823 13.5692 6.88481 13.4035 5.99384 12.9771C5.10287 12.5506 4.3507 11.8808 3.82421 11.0451C3.29771 10.2093 3.01837 9.24171 3.01843 8.25394Z" fill="currentColor"/>
</svg>
