<svg fill="none" height="18" viewBox="0 0 18 18" width="18" xmlns="http://www.w3.org/2000/svg"><path d="m9 4.5v4.5h3.375m3.375 0c0 .88642-.1746 1.7642-.5138 2.5831-.3392.819-.8364 1.5631-1.4632 2.1899s-1.3709 1.124-2.1899 1.4632c-.8189.3392-1.69668.5138-2.5831.5138s-1.76417-.1746-2.58311-.5138c-.81895-.3392-1.56307-.8364-2.18986-1.4632-.6268-.6268-1.124-1.3709-1.46322-2.1899-.33922-.8189-.51381-1.69668-.51381-2.5831 0-1.79021.71116-3.5071 1.97703-4.77297s2.98276-1.97703 4.77297-1.97703c1.7902 0 3.5071.71116 4.773 1.97703 1.2658 1.26587 1.977 2.98276 1.977 4.77297z" stroke="#cacace" stroke-linecap="round" stroke-linejoin="round" stroke-width="1.125"/></svg>