<svg fill="none" height="28" viewBox="0 0 28 28" width="28" xmlns="http://www.w3.org/2000/svg"><g clip-rule="evenodd" fill="#807e98" fill-rule="evenodd"><path d="m9.22611 18.7704c-.13783-.1433-.21315-.3354-.2094-.5342.00375-.1987.08626-.3879.2294-.5258l3.93799-3.71-3.93799-3.71c-.07435-.0675-.1344-.1491-.1766-.2402-.0422-.09108-.06569-.18969-.06908-.29001s.01339-.20029.04935-.294c.03595-.09372.09036-.17926.15998-.25156s.15305-.12989.24534-.16936c.09229-.03946.19156-.06.29193-.0604.10038-.0004.19981.01936.29237.05809.0926.03874.1765.09567.2467.16741l4.5 4.25003c.0726.0699.1303.1538.1698.2466.0394.0928.0597.1926.0597.2934s-.0203.2006-.0597.2934c-.0395.0927-.0972.1766-.1698.2466l-4.5 4.25c-.1433.1378-.33537.2131-.53413.2094-.19876-.0038-.38791-.0863-.52586-.2294z" opacity=".3"/><path d="m15.2417 18.7704c-.1378-.1433-.2131-.3354-.2094-.5342.0038-.1987.0863-.3879.2294-.5258l3.938-3.71-3.938-3.71c-.0743-.0675-.1344-.1491-.1766-.2402-.0422-.09108-.0657-.18969-.069-.29001-.0034-.10032.0133-.20029.0493-.294.036-.09372.0904-.17926.16-.25156s.153-.12989.2453-.16936c.0923-.03946.1916-.06.292-.0604.1003-.0004.1998.01936.2924.05809.0926.03874.1764.09567.2466.16741l4.5 4.25003c.0726.0699.1304.1538.1698.2466s.0598.1926.0598.2934-.0204.2006-.0598.2934c-.0394.0927-.0972.1766-.1698.2466l-4.5 4.25c-.1432.1378-.3353.2131-.5341.2094-.1988-.0038-.3879-.0863-.5259-.2294z" opacity=".6"/></g></svg>